<?xml version="1.0" encoding="UTF-8" standalone="no"?>
<!-- Created with Inkscape (http://www.inkscape.org/) -->

<svg
   xmlns:dc="http://purl.org/dc/elements/1.1/"
   xmlns:cc="http://creativecommons.org/ns#"
   xmlns:rdf="http://www.w3.org/1999/02/22-rdf-syntax-ns#"
   xmlns:svg="http://www.w3.org/2000/svg"
   xmlns="http://www.w3.org/2000/svg"
   xmlns:sodipodi="http://sodipodi.sourceforge.net/DTD/sodipodi-0.dtd"
   xmlns:inkscape="http://www.inkscape.org/namespaces/inkscape"
   width="606.18896"
   height="606.18896"
   viewBox="0 0 171.08 171.08"
   version="1.1"
   id="svg8"
   inkscape:version="0.48.5 r10040"
   sodipodi:docname="blm_v1.svg">
  <defs
     id="defs2" />
  <sodipodi:namedview
     id="base"
     pagecolor="#ffffff"
     bordercolor="#666666"
     borderopacity="1.0"
     inkscape:pageopacity="0.0"
     inkscape:pageshadow="2"
     inkscape:zoom="0.56756529"
     inkscape:cx="347.11016"
     inkscape:cy="197.22833"
     inkscape:document-units="mm"
     inkscape:current-layer="layer1"
     showgrid="false"
     inkscape:snap-global="false"
     showguides="true"
     inkscape:guide-bbox="true"
     inkscape:window-width="1440"
     inkscape:window-height="855"
     inkscape:window-x="0"
     inkscape:window-y="0"
     inkscape:window-maximized="1"
     units="mm"
     fit-margin-top="0"
     fit-margin-left="0"
     fit-margin-right="0"
     fit-margin-bottom="0" />
  <metadata
     id="metadata5">
    <rdf:RDF>
      <cc:Work
         rdf:about="">
        <dc:format>image/svg+xml</dc:format>
        <dc:type
           rdf:resource="http://purl.org/dc/dcmitype/StillImage" />
        <dc:title />
      </cc:Work>
    </rdf:RDF>
  </metadata>
  <g
     inkscape:label="Layer 1"
     inkscape:groupmode="layer"
     id="layer1"
     style="display:inline"
     transform="translate(-25.381914,-50.104434)">
    <path
       style="fill:#000000;fill-opacity:1;fill-rule:evenodd;stroke:none;display:inline"
       d="M 419.23242,189.37109 C 240.67829,189.371 95.931547,334.11775 95.931641,512.67188 95.931553,691.226 240.67829,835.97275 419.23242,835.97266 597.78655,835.97275 742.53329,691.226 742.5332,512.67188 742.53329,334.11775 597.78655,189.371 419.23242,189.37109 z m 0.62305,46.09571 c 154.12803,2e-4 279.07314,124.94619 279.07226,279.07422 -0.0506,114.16257 -69.62975,216.78257 -175.66601,259.08398 l 0,-101.48438 c 0,-13.19057 -0.99737,-11.81338 7.51367,-21.18359 17.07001,-18.79317 26.63041,-38.28423 34.8457,-59.17383 6.81597,-17.33132 11.46863,-51.58696 14.49024,-76.32226 2.21341,-18.11906 3.35123,-17.58183 -13.01367,-5.89258 l -41.15039,32.77539 c -14.81541,8.98061 -7.3361,10.6516 -23.55469,-8.80469 -7.71345,-9.86608 -35.82046,-29.46447 -58.86719,-40.17773 -13.84819,-6.43733 -27.58552,-9.58867 -41.46875,-11.44922 -17.68705,-2.37037 -14.53817,-0.75425 -5.15039,14.81445 l 78.41797,130.04883 c 6.33917,9.99088 10.07769,10.71292 -3.14453,9.58008 0,0 -3.72576,-0.22249 -5.58789,-0.33399 -7.22041,-0.43196 -5.80589,2.08259 -6.30664,8.73047 l -11.07227,146.99414 c -3.7595,0.48624 -7.52851,0.89583 -11.30469,1.22852 l 11.5293,-149.68555 c 0.47153,-6.88346 0.49015,-7.75805 -3.90234,-8.00976 l -7.90235,-0.45313 c -10.43788,-0.59834 -11.54748,1.19143 -2.20898,-5.91601 l 11.35742,-8.64454 c 7.54719,-5.74407 7.35078,-7.08047 -0.59961,-20.49023 L 379.72461,487.68164 c -5.0921,-8.58871 -8.07354,-12.96408 -18.78711,-17.25781 l -21.59961,-8.54492 c -16.19931,-6.40868 -24.18456,-6.57167 -8.25,-12.06446 l 7.45117,-2.56836 c 6.48983,-1.04417 8.89253,-1.90788 6.83008,-7.4707 l -3.72852,-10.05273 c -5.85699,-15.79745 -2.43786,-11.28987 6.08204,-4.35743 l 6.95507,5.65625 c 8.54147,7.22741 11.88157,8.63304 20.41211,7.88477 l 49.94336,-4.38086 c 6.61954,0.10556 11.60119,0.78726 12.5918,-10.97851 l 2.68359,-21.05274 c 0.59067,-3.75889 2.62235,-12.52883 -12.32617,-18.83984 L 326.68945,340.89062 c -12.97112,-5.86194 -11.13083,-7.97053 -19.73828,3.92969 l -76.01172,105.0918 c -8.52767,11.78993 -7.22356,17.33686 2.2461,31.27148 l 101.30273,149.06836 c 5.91072,8.69764 7.11496,8.68917 4.3457,25.30469 L 319.01953,774.44531 C 211.69388,732.85693 140.91111,629.64258 140.78125,514.54102 140.78037,360.41222 265.72667,235.46592 419.85547,235.4668 z m -34.13281,18.63476 c -1.97502,0.0521 -3.60686,1.41558 -5.37696,3.80469 l -45.31054,61.1543 c -6.19058,8.35547 -6.66442,14.70595 1.95117,17.91015 l 49.1914,18.29297 c 7.74229,2.87941 9.101,3.98182 14.98633,-4.62109 8.04922,-11.76602 24.60435,-33.44447 32.89649,-47.03906 3.11675,-5.10974 7.33676,-8.35576 -3.1836,-16.47461 l -39.69726,-30.63477 c -2.1777,-1.68059 -3.92091,-2.43313 -5.45703,-2.39258 z m 65.42187,43.69336 c -2.57893,0.0122 -3.9672,3.01582 -6.12305,6.14063 l -35.37304,51.27343 c -6.6703,9.66833 -6.20333,9.71156 3.33008,14.06641 l 27.05859,12.35938 c 7.04651,3.687 8.76872,6.44372 7.96875,12.46289 l -3.07617,23.13867 c -1.28799,13.73363 -2.8448,16.40619 6.68554,4.82031 l 50.36133,-63.02344 c 6.46662,-7.86135 5.83304,-8.19197 -0.61914,-14.5039 l -43.86133,-42.90625 c -2.82756,-2.7661 -4.8042,-3.83545 -6.35156,-3.82813 z m 206.28125,8.94531 4.43555,5.36524 -16.7461,13.85156 7.78907,9.41797 -4.05469,3.35352 -12.22656,-14.78321 20.80273,-17.20508 z m -477.42969,2.62305 2.11914,18.10742 20.01954,-2.60351 -5.34766,6.88281 -14.98438,1.95898 8.39649,6.52149 -4.27149,5.49805 -21.31835,-16.56055 4.27148,-5.49805 7.78125,6.04492 -1.625,-13.96875 4.95898,-6.38281 z m 493.23633,17.17969 4.07813,5.64258 -21.88086,15.81054 -4.07813,-5.64257 21.88086,-15.81055 z m 7.53516,10.11133 3.66797,5.95898 -13.21485,16.54102 20.71289,-4.36133 3.66797,5.95898 -28.23047,5.63477 -4.34961,-7.06641 17.7461,-22.66601 z m -519.71289,0.20117 4.72265,2.98633 c -1.43307,0.6198 -2.65742,1.35089 -3.67382,2.1914 -1.01641,0.84052 -1.89583,1.84597 -2.63672,3.01758 -1.32705,2.0988 -1.69779,4.17402 -1.11328,6.22656 0.58461,2.05258 2.05825,3.82761 4.42187,5.32227 2.35343,1.48821 4.58246,2.05492 6.6875,1.70312 2.10503,-0.35176 3.82128,-1.57704 5.14844,-3.67578 0.74082,-1.17165 1.27399,-2.39526 1.59765,-3.67383 0.32364,-1.27861 0.45869,-2.69935 0.4043,-4.25976 l 4.7207,2.98633 c -0.12255,1.43426 -0.41155,2.82767 -0.86718,4.17969 -0.45563,1.35201 -1.08531,2.664 -1.89063,3.9375 -2.40312,3.80006 -5.36715,6.14047 -8.89062,7.02148 -3.53376,0.87452 -7.11871,0.16324 -10.75586,-2.13672 -3.64735,-2.30634 -5.82836,-5.24165 -6.54297,-8.80273 -0.72483,-3.56748 0.11453,-7.25065 2.51758,-11.05079 0.8052,-1.27355 1.71986,-2.40532 2.74609,-3.39648 1.02616,-0.99124 2.16106,-1.85058 3.4043,-2.57617 z m 353.85156,20.10351 c -1.48639,0.0836 -3.05389,1.52922 -5.58203,4.85743 l -80.9961,106.62695 c -3.58899,4.72479 -5.77722,8.6007 1.99024,11.92578 l 40.78711,17.45898 c 5.4048,2.31368 7.87289,4.75006 14.32031,-2.5332 l 74.91016,-84.62304 c 6.20228,-7.0063 5.61217,-6.24385 -1.27149,-12.85938 l -39.0664,-37.54297 c -2.20078,-2.11506 -3.60541,-3.39413 -5.0918,-3.31055 z m 183.44727,9.2461 8.30859,16.84961 -4.71875,2.32617 -5.23047,-10.60547 -4.50781,2.22266 4.91797,9.97461 -4.71875,2.32617 -4.91797,-9.97266 -5.54688,2.73438 5.40625,10.96289 -4.71875,2.32812 -8.48437,-17.20703 24.21094,-11.93945 z m -557.74024,2.11719 28.60156,3.26562 -3.16015,6.24219 -5.1543,-0.70313 -4.91406,9.71289 3.61133,3.75196 -3.15821,6.24414 -19.57226,-21.10938 3.74609,-7.40429 z m 3.77734,6.55078 7.91016,8.15625 3.33789,-6.59766 -11.24805,-1.55859 z m 561.82813,17.85351 c 1.12055,0.0328 2.17492,0.32373 3.16211,0.87305 1.9745,1.09848 3.54735,3.1664 4.71875,6.20312 0.53369,1.38324 0.97578,2.84619 1.32617,4.39063 0.36168,1.54011 0.63526,3.17274 0.82227,4.89648 l -5.33008,2.05664 c 0.0849,-1.62192 0.0307,-3.15061 -0.16211,-4.58789 -0.19276,-1.43727 -0.5155,-2.74054 -0.9668,-3.91015 -0.59878,-1.55193 -1.25505,-2.61795 -1.96875,-3.19532 -0.71377,-0.57733 -1.52027,-0.69078 -2.41992,-0.34374 -0.67477,0.26035 -1.10738,0.71117 -1.29883,1.35351 -0.17587,0.64925 -0.14606,1.68357 0.0918,3.10352 l 0.51172,2.98047 c 0.51812,3.01722 0.43171,5.33752 -0.25977,6.96093 -0.69147,1.62344 -2.09471,2.84444 -4.20898,3.66016 -2.7778,1.07175 -5.16548,1.04225 -7.16406,-0.0859 -1.98327,-1.12078 -3.6278,-3.37229 -4.9336,-6.75781 -0.61614,-1.59695 -1.08351,-3.25905 -1.40039,-4.98438 -0.31682,-1.72535 -0.48728,-3.50756 -0.51172,-5.3457 l 5.48242,-2.11523 c -0.23433,1.93794 -0.28116,3.73934 -0.14257,5.40429 0.1542,1.67184 0.49918,3.20509 1.03711,4.59961 0.54672,1.41702 1.20178,2.41119 1.96484,2.98242 0.76306,0.57127 1.58376,0.68806 2.46094,0.34961 0.78722,-0.30372 1.29373,-0.79628 1.52148,-1.47851 0.23206,-0.67094 0.22292,-1.83643 -0.0293,-3.4961 l -0.41406,-2.72851 c -0.43212,-2.72741 -0.28231,-4.90413 0.44727,-6.5293 0.73388,-1.61398 2.10167,-2.80581 4.10351,-3.57812 1.25392,-0.48381 2.44,-0.71049 3.56055,-0.67774 z m -555.02539,3.3125 4.89062,1.94336 -7.08593,17.82813 -25.08594,-9.97071 2.57031,-6.46875 20.19727,8.02735 4.51367,-11.35938 z m 422.34375,18.92578 c -1.73844,-0.0455 -3.75028,0.9452 -6.22852,3.58985 l -75.00976,80.04687 c -7.16534,7.64652 -7.29402,8.51545 -0.44922,14.91211 l 20.25,18.92383 c 6.71384,6.27428 5.19549,6.55334 13.06836,0.31641 l 82.2832,-65.18555 c 5.54865,-4.39567 5.1608,-7.15102 0.88086,-12.47656 l -29.03125,-36.125 c -1.74473,-2.17099 -3.52853,-3.9434 -5.76367,-4.00196 z m -448.5,1.50586 c 0.78091,-0.0161 1.6185,0.10913 2.51562,0.375 1.25974,0.37334 2.24771,0.98663 2.96289,1.83985 0.70368,0.84974 1.10384,1.89871 1.19922,3.14648 0.8407,-1.30986 1.93698,-2.19094 3.29102,-2.64453 1.35395,-0.45367 2.84697,-0.43993 4.47656,0.043 2.49637,0.73978 4.10703,2.1351 4.83203,4.18555 0.72501,2.05041 0.57731,4.79813 -0.44336,8.24218 l -3.2832,11.07813 -25.88281,-7.67188 2.96875,-10.01953 c 1.0652,-3.5943 2.37896,-6.03382 3.9414,-7.31836 0.9787,-0.81003 2.12036,-1.22904 3.42188,-1.25586 z m -0.26367,7.03321 c -0.3783,0.0356 -0.7235,0.15627 -1.03516,0.35937 -0.63482,0.40275 -1.10823,1.12993 -1.41992,2.18164 l -1.09375,3.69141 5.47851,1.625 1.09376,-3.69336 c 0.31166,-1.05172 0.31696,-1.91749 0.0156,-2.59766 -0.30131,-0.68021 -0.90317,-1.15481 -1.80469,-1.42187 -0.44493,-0.13192 -0.85608,-0.18012 -1.23437,-0.14453 z m 10.64844,2.05859 c -0.46862,0.0434 -0.89089,0.19043 -1.26758,0.44336 -0.76497,0.5025 -1.34729,1.43104 -1.74805,2.7832 l -1.16016,3.91797 6.77735,2.00781 1.16211,-3.91796 c 0.39731,-1.34065 0.41059,-2.42944 0.043,-3.26758 -0.36425,-0.84972 -1.11757,-1.44413 -2.26172,-1.78321 -0.56054,-0.16612 -1.07631,-0.22699 -1.54492,-0.18359 z m 293.06054,15.8457 c -2.70544,0.003 -6.65681,0.50001 -11.76562,1.03516 -4.55656,0.69037 -19.6732,2.35445 -28.94336,3.57422 -7.31588,0.96264 -16.5869,1.0204 -20.2461,0.34375 -12.82766,-2.37203 -26.91573,2.41347 -11.01172,10.10156 17.80763,8.60825 25.08,10.38046 37.31641,14.39258 10.77555,3.53314 15.32462,6.978 22.21485,-1.53516 3.65898,-4.5208 7.78818,-11.14284 11.27929,-15.91797 7.03222,-9.61872 7.10821,-12.00099 1.15625,-11.99414 z m -104.67383,344.63477 7.09571,2.14648 1.20508,7.37305 c 0.2435,1.48422 0.62223,2.56232 1.13671,3.23438 0.50294,0.66857 1.29836,1.16782 2.38282,1.49609 l 1.88476,0.57031 2.95899,-9.77734 6.66406,2.01562 -7.82031,25.83789 -10.17579,-3.07812 c -3.40352,-1.03 -5.72214,-2.35593 -6.95703,-3.97656 -1.24649,-1.62404 -1.49719,-3.67164 -0.75,-6.14063 0.51676,-1.70754 1.35709,-2.9835 2.51953,-3.82812 1.15085,-0.84816 2.63462,-1.2805 4.45313,-1.29688 -0.84835,-0.48398 -1.51766,-1.20184 -2.00977,-2.15625 -0.50688,-0.94682 -0.90342,-2.27651 -1.1914,-3.98828 l -1.39649,-8.43164 z m 29.29493,8.51953 18.80078,3.80664 -5.35742,26.45703 -18.41211,-3.72656 1.04492,-5.1582 11.58984,2.34765 0.99805,-4.92773 -10.90039,-2.20703 1.04492,-5.15625 10.89844,2.20703 1.22851,-6.06055 -11.98047,-2.42578 1.04493,-5.15625 z m 132.09179,0.53125 4.74024,26.57422 -8.72266,1.55664 -8.58789,-13.14258 -3.55078,15.30664 -8.70508,1.55274 -4.74023,-26.57618 6.48047,-1.15429 3.46679,19.4375 3.56641,-15.42188 4.34375,-0.77344 8.67969,13.23633 -3.4668,-19.4375 6.49609,-1.1582 z m -100.86719,4.96484 6.91797,0.77539 -2.41601,21.59766 8.91211,0.99805 -0.58399,5.22851 -24.72656,-2.76562 0.58594,-5.23047 8.89453,0.99609 2.41601,-21.59961 z m 67.6543,0.63282 -8.13672,27.61328 -8.28125,0.56445 -11.81445,-26.25195 6.98242,-0.47657 2.0293,4.79102 10.86133,-0.74023 1.37695,-5.02344 6.98242,-0.47656 z m -41.63086,1.39843 6.95899,0.15039 -0.47657,21.72852 8.9668,0.19727 -0.11523,5.25976 -24.87305,-0.54492 0.11523,-5.25977 8.94727,0.19532 0.47656,-21.72657 z m -78.88867,2.17969 c -0.53827,-0.0212 -0.99647,0.0539 -1.375,0.22266 -0.7686,0.33411 -1.33172,1.09487 -1.69141,2.2832 -0.35613,1.17679 -0.30551,2.11198 0.15235,2.80469 0.44631,0.68918 1.36762,1.24356 2.76367,1.66601 l 2.80273,0.84961 2.00586,-6.6289 -2.80273,-0.84766 c -0.69802,-0.21124 -1.31719,-0.32838 -1.85547,-0.34961 z m 110.76953,7.03711 -7.3789,0.50391 4.4121,10.46289 2.9668,-10.9668 z"
       transform="scale(0.26458333,0.26458333)"
       id="path962"
       inkscape:connector-curvature="0" />
  </g>
</svg>
