<?xml version="1.0" encoding="UTF-8" standalone="no"?>
<svg
   xmlns:dc="http://purl.org/dc/elements/1.1/"
   xmlns:cc="http://creativecommons.org/ns#"
   xmlns:rdf="http://www.w3.org/1999/02/22-rdf-syntax-ns#"
   xmlns:svg="http://www.w3.org/2000/svg"
   xmlns="http://www.w3.org/2000/svg"
   xmlns:sodipodi="http://sodipodi.sourceforge.net/DTD/sodipodi-0.dtd"
   xmlns:inkscape="http://www.inkscape.org/namespaces/inkscape"
   width="3851.8528"
   height="2523.4563"
   viewBox="0 0 394.42973 258.40193"
   preserveAspectRatio="xMidYMid"
   version="1.1"
   id="svg10"
   sodipodi:docname="mashup3b-vector.svg"
   inkscape:export-filename="/home/mike/Desktop/Projects/RH_IBM/mashup3b.png"
   inkscape:export-xdpi="49.988583"
   inkscape:export-ydpi="49.988583"
   inkscape:version="0.92.4 (unknown)">
  <metadata
     id="metadata16">
    <rdf:RDF>
      <cc:Work
         rdf:about="">
        <dc:format>image/svg+xml</dc:format>
        <dc:type
           rdf:resource="http://purl.org/dc/dcmitype/StillImage" />
        <dc:title></dc:title>
      </cc:Work>
    </rdf:RDF>
  </metadata>
  <defs
     id="defs14" />
  <sodipodi:namedview
     pagecolor="#ffffff"
     bordercolor="#666666"
     borderopacity="1"
     objecttolerance="10"
     gridtolerance="10"
     guidetolerance="10"
     inkscape:pageopacity="0"
     inkscape:pageshadow="2"
     inkscape:window-width="1812"
     inkscape:window-height="943"
     id="namedview12"
     showgrid="false"
     inkscape:snap-page="true"
     inkscape:zoom="0.14028378"
     inkscape:cx="1347.3267"
     inkscape:cy="1261.7281"
     inkscape:window-x="0"
     inkscape:window-y="27"
     inkscape:window-maximized="0"
     inkscape:current-layer="svg10"
     fit-margin-top="0"
     fit-margin-left="0"
     fit-margin-right="0"
     fit-margin-bottom="0"
     showguides="false" />
  <path
     style="opacity:1;fill:#1f70c1;fill-opacity:1;fill-rule:evenodd;stroke:#000000;stroke-width:0.46890926;stroke-miterlimit:4;stroke-dasharray:none;stroke-opacity:1"
     d="M 2272.418 0.234375 C 2214.1547 1.6097774 2155.0605 9.684607 2097.5938 24.433594 C 2018.3364 44.793783 1863.1799 125.45161 1575.4688 60.638672 C 1246.5204 -13.466568 1102.7097 70.235019 1034.7559 166.88867 L 2020.043 166.88867 C 2072.6702 142.86739 2144.9547 124.12639 2226.3984 115.82227 A 862.92837 862.92837 0 0 1 2306.3652 111.30469 C 2310.8813 111.30469 2315.4151 111.3625 2320.0059 111.41797 C 2409.4005 113.44446 2488.3739 135.02914 2538.2734 166.88867 L 2704.3555 166.88867 C 2696.9745 158.01718 2689.7114 149.87638 2682.5898 142.54492 C 2593.4927 50.893728 2455.432 3.8606001 2308.6973 0.234375 L 2272.418 0.234375 z M 968.34961 333.54297 C 957.27986 377.71686 942.85412 439.00212 928.73242 500.19727 L 1091.2637 500.19727 C 1092.2313 486.17006 1095.5043 471.93409 1101.625 457.85742 C 1120.745 413.61287 1148.2386 399.03426 1173.3359 398.95508 C 1196.9122 398.8807 1218.3738 411.60248 1228.7871 424.54688 C 1248.2427 448.70674 1284.0575 484.3033 1330.9219 500.19727 L 1490.2129 500.19727 C 1537.9008 495.74101 1591.6801 491.16992 1655.623 491.16992 C 1688.2249 491.16992 1717.8703 494.53455 1743.8105 500.19727 L 2896.8652 500.19727 C 2869.3427 440.51958 2841.1621 384.15358 2813.2168 333.54297 L 2518.2773 333.54297 C 2466.9835 358.08546 2394.0259 372.54227 2313.4004 370.72461 C 2263.7969 369.60489 2217.2908 362.43954 2177.2422 350.86914 A 10.562662 10.562662 0 0 1 2169.0684 340.81055 A 10.450689 10.450689 0 0 1 2172.25 333.54297 L 968.34961 333.54297 z M 890.82422 666.84961 C 883.14738 701.02452 878.0918 723.75391 878.0918 723.75391 C 872.34199 755.3357 866.15308 792.78945 872.36914 833.50391 L 3031.3223 833.50391 C 3011.9067 778.13281 2990.8101 722.05817 2968.6055 666.84961 L 1526.0547 666.84961 C 1421.0871 685.90238 1396.2301 711.97677 1360.2422 750.29102 C 1301.6315 812.7452 1228.0847 709.59467 1201.5488 666.84961 L 890.82422 666.84961 z M 202.01172 1000.1582 C 108.16156 1038.3053 42.718016 1094.165 14.332031 1166.8125 L 773.83008 1166.8125 C 750.20983 1108.1206 752.85652 1052.4475 769.6582 1000.1582 L 202.01172 1000.1582 z M 983.88672 1000.1582 C 1059.5726 1057.6695 1182.8267 1115.0604 1380.832 1166.8125 L 3123.0684 1166.8125 C 3118.5638 1130.752 3110.001 1088.4621 3096.0254 1038.1328 C 3092.5533 1025.6351 3088.9174 1012.958 3085.1621 1000.1582 L 983.88672 1000.1582 z M 17.068359 1333.4668 C 35.836813 1386.375 69.709301 1442.3599 116.61328 1500.1191 L 1211.4688 1500.1191 C 1137.7059 1467.7525 1067.7687 1433.4827 1005.7578 1398.252 C 969.95356 1376.3671 938.7515 1354.7685 911.68359 1333.4668 L 17.068359 1333.4668 z M 1928.6953 1333.4668 C 1976.6803 1372.5843 1985.0138 1411.3487 1992.75 1443.9551 C 1997.5512 1464.1098 2002.8459 1482.7817 2008.5586 1500.1191 L 3021.207 1500.1191 C 3021.8765 1498.2385 3022.7508 1496.3311 3023.8613 1494.4355 C 3080.2392 1398.4384 3090.2962 1374.4396 3106.7188 1336.5371 C 3107.1373 1335.5274 3107.5441 1334.4925 3107.9551 1333.4668 L 1928.6953 1333.4668 z M 3225.2578 1333.4668 C 3201.1808 1389.4965 3160.8748 1449.0677 3077.1797 1500.1191 L 3736.6367 1500.1191 C 3673.9246 1434.2185 3587.2986 1378.1692 3480.957 1333.4668 L 3225.2578 1333.4668 z M 281.9707 1666.7734 C 346.38423 1722.1942 420.3236 1778.0858 502.19922 1833.4277 L 3847.4941 1833.4277 C 3848.523 1826.2931 3849.3677 1819.2061 3850.0293 1812.168 L 3850.0293 1736.5977 C 3847.6875 1712.6512 3843.0967 1689.3644 3836.3379 1666.7734 L 2118.332 1666.7734 C 2118.3804 1666.8057 2118.4282 1666.8408 2118.4766 1666.873 C 2169.9461 1701.1923 2118.4756 1729.5951 2061.3887 1735.4551 C 1994.4358 1742.3956 1848.6895 1715.3256 1677.8086 1666.7734 L 281.9707 1666.7734 z M 776.00781 2000.082 C 881.0245 2057.9757 993.52512 2113.9658 1111.4277 2166.7363 L 3682.9844 2166.7363 C 3730.0056 2116.2974 3768.3686 2060.7053 3796.8633 2000.082 L 776.00781 2000.082 z M 1534.7852 2333.3906 C 1589.7667 2352.1978 1645.3058 2370.1353 1701.252 2387.0742 C 1878.1691 2440.6461 2055.9705 2478.1098 2229.4531 2500.043 L 2933.8398 2500.043 C 3136.6459 2470.946 3317.9708 2414.9588 3465.0098 2333.3906 L 1534.7852 2333.3906 z "
     transform="scale(0.1024)"
     id="rect95" />
</svg>
